<svg id="Grupo_1432" data-name="Grupo 1432" xmlns="http://www.w3.org/2000/svg" xmlns:xlink="http://www.w3.org/1999/xlink" width="162.455" height="55" viewBox="0 0 162.455 55">
  <defs>
    <clipPath id="clip-path">
      <rect id="Retângulo_1036" data-name="Retângulo 1036" width="162.455" height="55" fill="none"/>
    </clipPath>
  </defs>
  <rect id="Retângulo_1027" data-name="Retângulo 1027" width="1.259" height="1.262" transform="translate(21.265 31.059) rotate(-45)" fill="#fff"/>
  <rect id="Retângulo_1028" data-name="Retângulo 1028" width="1.262" height="1.259" transform="translate(30.169 32.845) rotate(-45)" fill="#fff"/>
  <rect id="Retângulo_1029" data-name="Retângulo 1029" width="1.259" height="1.259" transform="translate(26.609 29.281) rotate(-45)" fill="#fff"/>
  <rect id="Retângulo_1030" data-name="Retângulo 1030" width="1.259" height="1.259" transform="translate(26.61 25.719) rotate(-45)" fill="#fff"/>
  <rect id="Retângulo_1031" data-name="Retângulo 1031" width="1.262" height="1.259" transform="translate(23.048 22.158) rotate(-45)" fill="#fff"/>
  <rect id="Retângulo_1032" data-name="Retângulo 1032" width="1.259" height="1.259" transform="translate(24.829 27.5) rotate(-45)" fill="#fff"/>
  <path id="Caminho_707" data-name="Caminho 707" d="M30.748,23.741,23.74,30.749v9.909l7.008,7.008h9.91l7.008-7.008V30.749l-7.008-7.008Zm15.66,7.531h0v8.9h0v0l-1.259-1.259v0l-3.209-3.209.89-.891,2.319,2.319V31.792l-4.1-4.1-2.671,2.671.888.887,1.781-1.78,0,0,.888.888.893.893.89.89-2.67,2.67h0l-1.783-1.783-.891.891L40.154,35.7l-.89.89-.891.89.891.891.888-.888.89-.891.891.891L44.6,40.157l0,0,.891.89-5.363,5.363H31.229l1.259-1.259h0L35.7,41.939l.89.89-2.319,2.319h5.343l4.1-4.1-2.672-2.672-.888.888,1.781,1.781,0,0-.888.888-1.783,1.783-2.67-2.67h0l1.783-1.783-.89-.89L35.7,40.155l-.891-.891-.89-.89-.89.89,1.778,1.779-3.562,3.562,0,0-.891.89L25,40.134v-8.9h0v0l1.259,1.259v0L29.467,35.7l-.891.891-2.318-2.319v5.342l4.1,4.1,2.671-2.671-.888-.888L30.36,41.936l-.89-.891-.893-.893-.891-.89,2.67-2.67h0l1.783,1.783.891-.891L31.251,35.7l.89-.891.891-.89-.891-.891-.888.888-.89.891-.891-.891L26.8,31.249h0l-.89-.889L31.271,25h8.906l-1.259,1.259h0l-3.209,3.209-.89-.89,2.318-2.319H31.791l-4.1,4.1,2.672,2.672.888-.889-1.781-1.78,0,0,2.671-2.671h0l2.67,2.67h0l-1.783,1.783.89.891L35.7,31.251l.89.891.891.891.89-.891L36.6,30.363,40.157,26.8l0,0,.891-.89Z" transform="translate(-8.203 -8.203)" fill="#fff"/>
  <path id="Caminho_708" data-name="Caminho 708" d="M14.278,32.977V22.023l7.745-7.745H32.977l7.745,7.745V32.977l-7.745,7.745H22.023ZM55,1.31H161.146V53.69H55ZM0,0V55H162.455V0Z" fill="#fff"/>
  <rect id="Retângulo_1033" data-name="Retângulo 1033" width="1.259" height="1.259" transform="translate(28.39 27.5) rotate(-45)" fill="#fff"/>
  <rect id="Retângulo_1034" data-name="Retângulo 1034" width="1.259" height="1.262" transform="translate(31.952 23.939) rotate(-45)" fill="#fff"/>
  <path id="Caminho_709" data-name="Caminho 709" d="M105.139,36.109V25.63h7.416v1.916h-5.185v2.278h5.075v1.916h-5.075v2.436h5.185v1.932Z" transform="translate(-36.328 -8.856)" fill="#fff"/>
  <g id="Grupo_1431" data-name="Grupo 1431" transform="translate(0 0)">
    <g id="Grupo_1430" data-name="Grupo 1430" clip-path="url(#clip-path)">
      <path id="Caminho_710" data-name="Caminho 710" d="M120.679,32.852a4.6,4.6,0,0,0,3.331,1.414c1.226,0,1.823-.582,1.823-1.179,0-.785-.911-1.053-2.121-1.336-1.712-.392-3.912-.864-3.912-3.2,0-1.744,1.508-3.158,3.975-3.158a5.828,5.828,0,0,1,4.085,1.461l-1.242,1.634a4.47,4.47,0,0,0-3-1.147c-1.005,0-1.539.44-1.539,1.068,0,.707.88.927,2.089,1.21,1.728.393,3.928.911,3.928,3.236,0,1.916-1.367,3.362-4.2,3.362a6.036,6.036,0,0,1-4.446-1.666Z" transform="translate(-41.274 -8.772)" fill="#fff"/>
      <path id="Caminho_711" data-name="Caminho 711" d="M136.262,32.852a4.6,4.6,0,0,0,3.331,1.414c1.226,0,1.823-.582,1.823-1.179,0-.785-.911-1.053-2.121-1.336-1.712-.392-3.912-.864-3.912-3.2,0-1.744,1.508-3.158,3.975-3.158a5.829,5.829,0,0,1,4.085,1.461L142.2,28.484a4.47,4.47,0,0,0-3-1.147c-1.005,0-1.54.44-1.54,1.068,0,.707.88.927,2.09,1.21,1.728.393,3.928.911,3.928,3.236,0,1.916-1.367,3.362-4.2,3.362a6.036,6.036,0,0,1-4.446-1.666Z" transform="translate(-46.658 -8.772)" fill="#fff"/>
      <path id="Caminho_712" data-name="Caminho 712" d="M151.87,36.109V25.63h7.416v1.916H154.1v2.278h5.075v1.916H154.1v2.436h5.185v1.932Z" transform="translate(-52.474 -8.856)" fill="#fff"/>
      <path id="Caminho_713" data-name="Caminho 713" d="M175.049,36.109l-5-7.038v7.038h-2.231V25.63h2.294l4.855,6.787V25.63H177.2V36.109Z" transform="translate(-57.986 -8.856)" fill="#fff"/>
      <path id="Caminho_714" data-name="Caminho 714" d="M188.724,36.109V27.594h-3.064V25.63h8.358v1.963h-3.048v8.515Z" transform="translate(-64.149 -8.856)" fill="#fff"/>
      <rect id="Retângulo_1035" data-name="Retângulo 1035" width="2.231" height="10.479" transform="translate(132.155 16.774)" fill="#fff"/>
      <path id="Caminho_715" data-name="Caminho 715" d="M216.934,36.109l-.66-1.807h-4.682l-.66,1.807h-2.451l4.053-10.479h2.8l4.037,10.479Zm-3-8.547-1.744,4.808h3.473Z" transform="translate(-72.034 -8.856)" fill="#fff"/>
      <path id="Caminho_716" data-name="Caminho 716" d="M108.756,47.887a3.184,3.184,0,0,1,2.813,1.488l-1.2.652a1.931,1.931,0,0,0-1.611-.855,2.234,2.234,0,0,0,0,4.464,2.3,2.3,0,0,0,1.468-.52V52.29h-1.814V51.047h3.24v2.6a3.772,3.772,0,0,1-2.894,1.284,3.522,3.522,0,1,1,0-7.042" transform="translate(-36.328 -16.546)" fill="#fff"/>
      <path id="Caminho_717" data-name="Caminho 717" d="M121.941,54.856l-1.335-2.435h-1.06v2.435H118.1v-6.8h3.179a2.117,2.117,0,0,1,2.283,2.191,1.95,1.95,0,0,1-1.488,2.018l1.528,2.588Zm-.877-5.553h-1.518v1.874h1.518a.941.941,0,1,0,0-1.874" transform="translate(-40.805 -16.605)" fill="#fff"/>
      <path id="Caminho_718" data-name="Caminho 718" d="M132.409,47.888a3.515,3.515,0,1,1-3.545,3.515,3.416,3.416,0,0,1,3.545-3.515m0,1.284a2.238,2.238,0,1,0,2.069,2.231,2.055,2.055,0,0,0-2.069-2.231" transform="translate(-44.525 -16.546)" fill="#fff"/>
      <path id="Caminho_719" data-name="Caminho 719" d="M142.526,48.058h1.467v4.036a1.57,1.57,0,1,0,3.139,0V48.058H148.6v4.076c0,1.692-.969,2.843-3.026,2.843-2.079,0-3.047-1.162-3.047-2.833Z" transform="translate(-49.245 -16.605)" fill="#fff"/>
      <path id="Caminho_720" data-name="Caminho 720" d="M155.113,54.856v-6.8h3.178a2.183,2.183,0,1,1,0,4.361H156.56v2.435ZM158.1,49.3H156.56v1.874H158.1a.939.939,0,1,0,0-1.874" transform="translate(-53.595 -16.605)" fill="#fff"/>
    </g>
  </g>
</svg>
