<svg xmlns="http://www.w3.org/2000/svg" width="22" height="22" viewBox="0 0 22 22">
  <path id="Icon_awesome-user-circle" data-name="Icon awesome-user-circle" d="M11,.563a11,11,0,1,0,11,11A11,11,0,0,0,11,.563Zm0,4.258a3.9,3.9,0,1,1-3.9,3.9A3.9,3.9,0,0,1,11,4.821Zm0,15.258a8.5,8.5,0,0,1-6.5-3.025A4.945,4.945,0,0,1,8.871,14.4a1.085,1.085,0,0,1,.315.049A5.873,5.873,0,0,0,11,14.756a5.85,5.85,0,0,0,1.814-.306,1.085,1.085,0,0,1,.315-.049A4.945,4.945,0,0,1,17.5,17.054,8.5,8.5,0,0,1,11,20.079Z" transform="translate(0 -0.563)" fill="#e8e8e8"/>
</svg>
