<svg xmlns="http://www.w3.org/2000/svg" width="344.602" height="79.544" viewBox="0 0 344.602 79.544">
  <g id="Grupo_4" data-name="Grupo 4" transform="translate(-194.838 -258.398)">
    <path id="gecom" d="M4.34,8.68c4.13,3.78,8.4,5.04,14.14,5.04,8.33,0,17.36-3.29,17.36-15.47V-33.81H28.49v4.69a13.466,13.466,0,0,0-10.85-5.53c-8.68,0-14.98,6.44-14.98,17.36C2.66-6.16,9.03.07,17.64.07a13.723,13.723,0,0,0,10.85-5.6v4.06c0,6.93-5.18,9.17-10.01,9.17C14,7.7,10.5,6.51,7.77,3.36ZM28.49-10.99a10.971,10.971,0,0,1-8.68,4.55c-5.81,0-9.52-4.34-9.52-10.85S14-28.14,19.81-28.14a10.971,10.971,0,0,1,8.68,4.55Zm20.37-5.95C48.86-6.23,56.42.84,66.57.84c5.39,0,10.36-1.68,13.72-4.9L76.93-8.89a14.31,14.31,0,0,1-9.59,3.71c-6.37,0-10.22-4.2-10.78-9.31H82.67v-1.75c0-10.64-6.51-18.41-16.66-18.41C56-34.65,48.86-26.74,48.86-16.94ZM66.01-28.63a9.043,9.043,0,0,1,9.52,8.96H56.49C56.84-23.8,59.71-28.63,66.01-28.63ZM93.45-16.94c0,10.29,7.21,17.78,17.5,17.78,6.58,0,10.57-2.8,12.95-6.02l-4.83-4.48a9.191,9.191,0,0,1-7.77,3.99c-6.16,0-10.22-4.69-10.22-11.27s4.06-11.2,10.22-11.2a9.024,9.024,0,0,1,7.77,3.99l4.83-4.48c-2.38-3.22-6.37-6.02-12.95-6.02C100.66-34.65,93.45-27.16,93.45-16.94ZM151.2.84c10.85,0,17.43-8.05,17.43-17.78,0-9.66-6.58-17.71-17.43-17.71-10.71,0-17.36,8.05-17.36,17.71C133.84-7.21,140.49.84,151.2.84Zm0-6.51c-6.23,0-9.73-5.25-9.73-11.27,0-5.95,3.5-11.2,9.73-11.2,6.3,0,9.8,5.25,9.8,11.2C161-10.92,157.5-5.67,151.2-5.67ZM230.44,0V-24.43c0-6.86-3.5-10.22-9.73-10.22a14.339,14.339,0,0,0-11.48,6.23c-1.12-3.71-4.2-6.23-9.24-6.23A14.6,14.6,0,0,0,189-29.19v-4.62h-7.35V0H189V-23.59c1.54-2.24,4.55-4.55,7.77-4.55,3.99,0,5.6,2.45,5.6,6.09V0h7.35V-23.66c1.47-2.17,4.55-4.48,7.84-4.48,3.92,0,5.53,2.45,5.53,6.09V0Z" transform="translate(309 320)" fill="#fff"/>
    <g id="cart-large-2-svgrepo-com_1_" data-name="cart-large-2-svgrepo-com (1)" transform="translate(196 258.56)">
      <path id="Caminho_735" data-name="Caminho 735" d="M2,3l1.087.362c5.418,1.806,8.127,2.709,9.677,4.859s1.55,5.005,1.55,10.717V29.679c0,11.609,0,17.414,3.607,21.02s9.411,3.607,21.02,3.607H47.15m24.627,0h-8.21" fill="none" stroke="#fff" stroke-linecap="round" stroke-width="5"/>
      <path id="Caminho_736" data-name="Caminho 736" d="M12.157,18A6.157,6.157,0,1,1,6,24.157,6.157,6.157,0,0,1,12.157,18Z" transform="translate(12.418 46.567)" fill="none" stroke="#fff" stroke-width="5"/>
      <path id="Caminho_737" data-name="Caminho 737" d="M21.157,18A6.157,6.157,0,1,1,15,24.157,6.157,6.157,0,0,1,21.157,18Z" transform="translate(40.358 46.568)" fill="none" stroke="#fff" stroke-width="5"/>
      <path id="Caminho_738" data-name="Caminho 738" d="M5,6H17.313M7.052,34.731H50.239c3.938,0,5.907,0,7.449-1.017s2.318-2.827,3.869-6.446l1.759-4.1c3.323-7.753,4.984-11.629,3.159-14.4S60.433,6,52,6H33.731" transform="translate(9.313 9.313)" fill="none" stroke="#fff" stroke-linecap="round" stroke-width="5"/>
    </g>
  </g>
</svg>
