<svg xmlns="http://www.w3.org/2000/svg" width="393.738" height="89.835" viewBox="0 0 393.738 89.835">
  <g id="Grupo_7" data-name="Grupo 7" transform="translate(-194.838 -624.398)">
    <path id="GERENCIADOR_DE_compras" data-name="GERENCIADOR DE compras" d="M.828-5.994A6.043,6.043,0,0,0,7.056.234,6.388,6.388,0,0,0,11.9-1.89V-6.3H6.246v1.584H10.1v2.16A4.657,4.657,0,0,1,7.056-1.368,4.375,4.375,0,0,1,2.682-5.994,4.35,4.35,0,0,1,7.056-10.6a4.14,4.14,0,0,1,3.294,1.62l1.458-.846A5.644,5.644,0,0,0,7.056-12.2,6.028,6.028,0,0,0,.828-5.994ZM23.706,0V-1.584H17.442V-5.328H23.58V-6.912H17.442v-3.51h6.264v-1.584H15.642V0ZM36.4,0,33.318-4.806a3.349,3.349,0,0,0,2.988-3.51,3.578,3.578,0,0,0-3.852-3.69H27.4V0h1.8V-4.626h2.25L34.308,0ZM34.452-8.316A2.076,2.076,0,0,1,32.22-6.21H29.2v-4.212H32.22A2.076,2.076,0,0,1,34.452-8.316ZM48.024,0V-1.584H41.76V-5.328H47.9V-6.912H41.76v-3.51h6.264v-1.584H39.96V0ZM61.9,0V-12.006H60.1v9l-6.534-9H51.714V0h1.8V-9.216L60.156,0Zm9.756.216a5.452,5.452,0,0,0,4.77-2.538l-1.53-.81a3.805,3.805,0,0,1-3.24,1.746,4.346,4.346,0,0,1-4.3-4.608,4.336,4.336,0,0,1,4.3-4.608A3.805,3.805,0,0,1,74.9-8.856l1.53-.81a5.429,5.429,0,0,0-4.77-2.538A6.012,6.012,0,0,0,65.5-5.994,6.012,6.012,0,0,0,71.658.216ZM81.468,0V-12.006h-1.8V0Zm14.67,0-4.77-12.006h-2.25L84.348,0h1.98L87.3-2.484h5.886L94.158,0ZM92.664-4.086H87.822l2.412-6.354ZM103.3,0a5.838,5.838,0,0,0,6.228-5.994,5.862,5.862,0,0,0-6.228-6.012H99.018V0Zm-2.484-10.422H103.3a4.15,4.15,0,0,1,4.374,4.428,4.183,4.183,0,0,1-4.374,4.41h-2.484Zm11.826,4.428a5.9,5.9,0,0,0,6.048,6.21,5.9,5.9,0,0,0,6.048-6.21,5.9,5.9,0,0,0-6.048-6.21A5.9,5.9,0,0,0,112.644-5.994Zm10.242,0c0,2.628-1.656,4.608-4.194,4.608-2.574,0-4.194-1.98-4.194-4.608,0-2.646,1.62-4.608,4.194-4.608C121.23-10.6,122.886-8.64,122.886-5.994ZM137.358,0,134.28-4.806a3.349,3.349,0,0,0,2.988-3.51,3.578,3.578,0,0,0-3.852-3.69h-5.058V0h1.8V-4.626h2.25L135.27,0Zm-1.944-8.316a2.076,2.076,0,0,1-2.232,2.106h-3.024v-4.212h3.024A2.076,2.076,0,0,1,135.414-8.316ZM151.29,0a5.838,5.838,0,0,0,6.228-5.994,5.862,5.862,0,0,0-6.228-6.012h-4.284V0Zm-2.484-10.422h2.484a4.15,4.15,0,0,1,4.374,4.428,4.183,4.183,0,0,1-4.374,4.41h-2.484ZM169.2,0V-1.584h-6.264V-5.328h6.138V-6.912h-6.138v-3.51H169.2v-1.584h-8.064V0Zm15.426.216a5.452,5.452,0,0,0,4.77-2.538l-1.53-.81a3.805,3.805,0,0,1-3.24,1.746,4.346,4.346,0,0,1-4.3-4.608,4.336,4.336,0,0,1,4.3-4.608,3.805,3.805,0,0,1,3.24,1.746l1.53-.81a5.429,5.429,0,0,0-4.77-2.538,6.012,6.012,0,0,0-6.156,6.21A6.012,6.012,0,0,0,184.626.216Zm7.506-6.21A5.9,5.9,0,0,0,198.18.216a5.9,5.9,0,0,0,6.048-6.21,5.9,5.9,0,0,0-6.048-6.21A5.9,5.9,0,0,0,192.132-5.994Zm10.242,0c0,2.628-1.656,4.608-4.194,4.608-2.574,0-4.194-1.98-4.194-4.608,0-2.646,1.62-4.608,4.194-4.608C200.718-10.6,202.374-8.64,202.374-5.994ZM219.978,0V-12.006H217.4l-3.492,8.622-3.492-8.622h-2.574V0h1.8V-9.54L213.534,0h.756l3.888-9.54V0Zm5.9,0V-4.626h3.258a3.591,3.591,0,0,0,3.834-3.69,3.581,3.581,0,0,0-3.834-3.69h-5.058V0Zm5.238-8.316a2.061,2.061,0,0,1-2.214,2.106h-3.024v-4.212h3.024A2.061,2.061,0,0,1,231.12-8.316ZM245.268,0,242.19-4.806a3.349,3.349,0,0,0,2.988-3.51,3.578,3.578,0,0,0-3.852-3.69h-5.058V0h1.8V-4.626h2.25L243.18,0Zm-1.944-8.316a2.076,2.076,0,0,1-2.232,2.106h-3.024v-4.212h3.024A2.076,2.076,0,0,1,243.324-8.316ZM259.38,0l-4.77-12.006h-2.25L247.59,0h1.98l.972-2.484h5.886L257.4,0Zm-3.474-4.086h-4.842l2.412-6.354Zm5.4,2.394A6.144,6.144,0,0,0,266.04.216c3.24,0,4.536-1.746,4.536-3.618,0-2.556-2.286-3.168-4.248-3.69-1.494-.378-2.79-.72-2.79-1.8,0-1.008.918-1.692,2.25-1.692a4.683,4.683,0,0,1,3.474,1.4l1.044-1.332a5.886,5.886,0,0,0-4.374-1.674c-2.5,0-4.248,1.44-4.248,3.42,0,2.448,2.232,3.006,4.158,3.51,1.53.4,2.9.756,2.9,2.016,0,.864-.684,1.854-2.628,1.854a5.062,5.062,0,0,1-3.78-1.692Z" transform="translate(318 714)" fill="#fff"/>
    <path id="gecom" d="M4.03,8.06c3.835,3.51,7.8,4.68,13.13,4.68,7.735,0,16.12-3.055,16.12-14.365V-31.4H26.455v4.355A12.5,12.5,0,0,0,16.38-32.175c-8.06,0-13.91,5.98-13.91,16.12C2.47-5.72,8.385.065,16.38.065a12.743,12.743,0,0,0,10.075-5.2v3.77c0,6.435-4.81,8.515-9.3,8.515C13,7.15,9.75,6.045,7.215,3.12ZM26.455-10.2A10.187,10.187,0,0,1,18.4-5.98c-5.4,0-8.84-4.03-8.84-10.075S13-26.13,18.4-26.13a10.187,10.187,0,0,1,8.06,4.225ZM45.37-15.73C45.37-5.785,52.39.78,61.815.78c5,0,9.62-1.56,12.74-4.55l-3.12-4.485a13.288,13.288,0,0,1-8.9,3.445c-5.915,0-9.49-3.9-10.01-8.645H76.765V-15.08c0-9.88-6.045-17.095-15.47-17.095C52-32.175,45.37-24.83,45.37-15.73ZM61.3-26.585a8.4,8.4,0,0,1,8.84,8.32H52.455C52.78-22.1,55.445-26.585,61.3-26.585ZM86.775-15.73c0,9.555,6.695,16.51,16.25,16.51,6.11,0,9.815-2.6,12.025-5.59l-4.485-4.16a8.535,8.535,0,0,1-7.215,3.7c-5.72,0-9.49-4.355-9.49-10.465s3.77-10.4,9.49-10.4a8.38,8.38,0,0,1,7.215,3.705l4.485-4.16c-2.21-2.99-5.915-5.59-12.025-5.59C93.47-32.175,86.775-25.22,86.775-15.73ZM140.4.78c10.075,0,16.185-7.475,16.185-16.51,0-8.97-6.11-16.445-16.185-16.445-9.945,0-16.12,7.475-16.12,16.445C124.28-6.7,130.455.78,140.4.78Zm0-6.045c-5.785,0-9.035-4.875-9.035-10.465,0-5.525,3.25-10.4,9.035-10.4,5.85,0,9.1,4.875,9.1,10.4C149.5-10.14,146.25-5.265,140.4-5.265ZM213.98,0V-22.685c0-6.37-3.25-9.49-9.035-9.49a13.315,13.315,0,0,0-10.66,5.785c-1.04-3.445-3.9-5.785-8.58-5.785A13.558,13.558,0,0,0,175.5-27.1V-31.4h-6.825V0H175.5V-21.905c1.43-2.08,4.225-4.225,7.215-4.225,3.7,0,5.2,2.275,5.2,5.655V0h6.825V-21.97a9.526,9.526,0,0,1,7.28-4.16c3.64,0,5.135,2.275,5.135,5.655V0Z" transform="translate(317 670)" fill="#fff"/>
    <g id="cart-large-2-svgrepo-com_1_" data-name="cart-large-2-svgrepo-com (1)" transform="translate(196 624.56)">
      <path id="Caminho_735" data-name="Caminho 735" d="M2,3l1.087.362c5.418,1.806,8.127,2.709,9.677,4.859s1.55,5.005,1.55,10.717V29.679c0,11.609,0,17.414,3.607,21.02s9.411,3.607,21.02,3.607H47.15m24.627,0h-8.21" fill="none" stroke="#fff" stroke-linecap="round" stroke-width="5"/>
      <path id="Caminho_736" data-name="Caminho 736" d="M12.157,18A6.157,6.157,0,1,1,6,24.157,6.157,6.157,0,0,1,12.157,18Z" transform="translate(12.418 46.567)" fill="none" stroke="#fff" stroke-width="5"/>
      <path id="Caminho_737" data-name="Caminho 737" d="M21.157,18A6.157,6.157,0,1,1,15,24.157,6.157,6.157,0,0,1,21.157,18Z" transform="translate(40.358 46.568)" fill="none" stroke="#fff" stroke-width="5"/>
      <path id="Caminho_738" data-name="Caminho 738" d="M5,6H17.313M7.052,34.731H50.239c3.938,0,5.907,0,7.449-1.017s2.318-2.827,3.869-6.446l1.759-4.1c3.323-7.753,4.984-11.629,3.159-14.4S60.433,6,52,6H33.731" transform="translate(9.313 9.313)" fill="none" stroke="#fff" stroke-linecap="round" stroke-width="5"/>
    </g>
  </g>
</svg>
